<svg width="25" height="25" viewBox="0 0 25 25" fill="none" xmlns="http://www.w3.org/2000/svg">
                                <path d="M6.25008 22.9167C5.67717 22.9167 5.18654 22.7125 4.77821 22.3042C4.36987 21.8958 4.16606 21.4056 4.16675 20.8333V10.4167C4.16675 9.84375 4.37092 9.35312 4.77925 8.94479C5.18758 8.53646 5.67786 8.33264 6.25008 8.33333H7.29175V6.25C7.29175 4.80903 7.79974 3.58055 8.81571 2.56458C9.83168 1.54861 11.0598 1.04097 12.5001 1.04166C13.9411 1.04166 15.1695 1.54965 16.1855 2.56562C17.2015 3.5816 17.7091 4.80972 17.7084 6.25V8.33333H18.7501C19.323 8.33333 19.8136 8.5375 20.222 8.94583C20.6303 9.35417 20.8341 9.84444 20.8334 10.4167V20.8333C20.8334 21.4062 20.6292 21.8969 20.2209 22.3052C19.8126 22.7135 19.3223 22.9174 18.7501 22.9167H6.25008ZM6.25008 20.8333H18.7501V10.4167H6.25008V20.8333ZM12.5001 17.7083C13.073 17.7083 13.5636 17.5042 13.972 17.0958C14.3803 16.6875 14.5841 16.1972 14.5834 15.625C14.5834 15.0521 14.3792 14.5615 13.9709 14.1531C13.5626 13.7448 13.0723 13.541 12.5001 13.5417C11.9272 13.5417 11.4365 13.7458 11.0282 14.1542C10.6199 14.5625 10.4161 15.0528 10.4167 15.625C10.4167 16.1979 10.6209 16.6885 11.0293 17.0969C11.4376 17.5052 11.9279 17.709 12.5001 17.7083ZM9.37508 8.33333H15.6251V6.25C15.6251 5.38194 15.3213 4.6441 14.7136 4.03646C14.106 3.42882 13.3681 3.125 12.5001 3.125C11.632 3.125 10.8942 3.42882 10.2865 4.03646C9.6789 4.6441 9.37508 5.38194 9.37508 6.25V8.33333Z" fill="#3A6B5E"/>
                            </svg>    