<svg xmlns="http://www.w3.org/2000/svg" width="24" height="24" viewBox="0 0 24 24" fill="none">
  <path d="M0 18C0 18.7072 0.280952 19.3855 0.781049 19.8856C1.28115 20.3857 1.95942 20.6667 2.66667 20.6667H21.3333C22.0406 20.6667 22.7189 20.3857 23.219 19.8856C23.719 19.3855 24 18.7072 24 18V14.6667H0V18Z" fill="#138808"/>
  <path d="M24 9.33333V5.99999C24 5.29275 23.719 4.61447 23.219 4.11438C22.7189 3.61428 22.0406 3.33333 21.3333 3.33333H2.66667C1.95942 3.33333 1.28115 3.61428 0.781049 4.11438C0.280952 4.61447 0 5.29275 0 5.99999L0 9.33333H24Z" fill="#FF9933"/>
  <path d="M0 9.11133H24V14.8893H0V9.11133Z" fill="#F7F7F7"/>
  <path d="M11.9997 14.6667C13.4724 14.6667 14.6663 13.4728 14.6663 12C14.6663 10.5272 13.4724 9.33333 11.9997 9.33333C10.5269 9.33333 9.33301 10.5272 9.33301 12C9.33301 13.4728 10.5269 14.6667 11.9997 14.6667Z" fill="#000080"/>
  <path d="M12 14.25C13.2426 14.25 14.25 13.2426 14.25 12C14.25 10.7574 13.2426 9.75 12 9.75C10.7574 9.75 9.75 10.7574 9.75 12C9.75 13.2426 10.7574 14.25 12 14.25Z" fill="#F7F7F7"/>
  <path d="M12.0662 11.1667L11.9995 11.6L11.9329 11.1667L11.9995 9.86667L12.0662 11.1667ZM11.4475 9.93934L11.7195 11.212L11.8962 11.6133L11.8482 11.178L11.4475 9.93934ZM10.9329 10.1527L11.5249 11.3113L11.7995 11.6533L11.6409 11.2447L10.9329 10.1527ZM10.4909 10.4913L11.3629 11.458L11.7169 11.7173L11.4575 11.3633L10.4909 10.4913ZM10.1522 10.9333L11.2442 11.6413L11.6529 11.8L11.3109 11.5253L10.1522 10.9333ZM9.93888 11.448L11.1775 11.8487L11.6129 11.8967L11.2115 11.72L9.93888 11.448ZM9.86621 12L11.1662 12.0667L11.5995 12L11.1662 11.9333L9.86621 12ZM9.93888 12.552L11.2115 12.28L11.6129 12.1033L11.1775 12.1513L9.93888 12.552ZM10.1522 13.0667L11.3109 12.4747L11.6529 12.2L11.2442 12.3587L10.1522 13.0667ZM10.4909 13.5087L11.4575 12.6367L11.7169 12.2827L11.3629 12.542L10.4909 13.5087ZM10.9329 13.8473L11.6409 12.7553L11.7995 12.3467L11.5249 12.6887L10.9329 13.8473ZM11.4475 14.0607L11.8482 12.822L11.8962 12.3867L11.7195 12.788L11.4475 14.0607ZM11.9995 14.1333L12.0662 12.8333L11.9995 12.4L11.9329 12.8333L11.9995 14.1333ZM12.5515 14.0607L12.2795 12.788L12.1029 12.3867L12.1509 12.822L12.5515 14.0607ZM13.0662 13.8473L12.4742 12.6887L12.1995 12.3467L12.3582 12.7553L13.0662 13.8473ZM13.5082 13.5087L12.6362 12.542L12.2822 12.2827L12.5415 12.6367L13.5082 13.5087ZM13.8469 13.0667L12.7549 12.3587L12.3462 12.2L12.6882 12.4747L13.8469 13.0667ZM14.0602 12.552L12.8215 12.1513L12.3862 12.1033L12.7875 12.28L14.0602 12.552ZM14.1329 12L12.8329 11.9333L12.3995 12L12.8329 12.0667L14.1329 12ZM14.0602 11.448L12.7875 11.72L12.3862 11.8967L12.8215 11.8487L14.0602 11.448ZM13.8469 10.9333L12.6882 11.5253L12.3462 11.8L12.7549 11.6413L13.8469 10.9333ZM13.5082 10.4913L12.5415 11.3633L12.2822 11.7173L12.6362 11.458L13.5082 10.4913ZM13.0662 10.1527L12.3582 11.2447L12.1995 11.6533L12.4742 11.3113L13.0662 10.1527ZM12.5515 9.93934L12.1509 11.178L12.1029 11.6133L12.2795 11.212L12.5515 9.93934Z" fill="#6666B3"/>
  <path d="M11.7066 9.90601C11.7802 9.90601 11.8399 9.84632 11.8399 9.77268C11.8399 9.69904 11.7802 9.63934 11.7066 9.63934C11.6329 9.63934 11.5732 9.69904 11.5732 9.77268C11.5732 9.84632 11.6329 9.90601 11.7066 9.90601Z" fill="#000080"/>
  <path d="M11.1392 10.058C11.2128 10.058 11.2725 9.99831 11.2725 9.92467C11.2725 9.85103 11.2128 9.79134 11.1392 9.79134C11.0656 9.79134 11.0059 9.85103 11.0059 9.92467C11.0059 9.99831 11.0656 10.058 11.1392 10.058Z" fill="#000080"/>
  <path d="M10.6314 10.3507C10.705 10.3507 10.7647 10.291 10.7647 10.2173C10.7647 10.1437 10.705 10.084 10.6314 10.084C10.5577 10.084 10.498 10.1437 10.498 10.2173C10.498 10.291 10.5577 10.3507 10.6314 10.3507Z" fill="#000080"/>
  <path d="M10.2163 10.7653C10.29 10.7653 10.3497 10.7056 10.3497 10.632C10.3497 10.5584 10.29 10.4987 10.2163 10.4987C10.1427 10.4987 10.083 10.5584 10.083 10.632C10.083 10.7056 10.1427 10.7653 10.2163 10.7653Z" fill="#000080"/>
  <path d="M9.92337 11.2733C9.99701 11.2733 10.0567 11.2136 10.0567 11.14C10.0567 11.0664 9.99701 11.0067 9.92337 11.0067C9.84973 11.0067 9.79004 11.0664 9.79004 11.14C9.79004 11.2136 9.84973 11.2733 9.92337 11.2733Z" fill="#000080"/>
  <path d="M9.77201 11.84C9.84564 11.84 9.90534 11.7803 9.90534 11.7067C9.90534 11.633 9.84564 11.5733 9.77201 11.5733C9.69837 11.5733 9.63867 11.633 9.63867 11.7067C9.63867 11.7803 9.69837 11.84 9.77201 11.84Z" fill="#000080"/>
  <path d="M9.77201 12.4267C9.84564 12.4267 9.90534 12.367 9.90534 12.2934C9.90534 12.2197 9.84564 12.16 9.77201 12.16C9.69837 12.16 9.63867 12.2197 9.63867 12.2934C9.63867 12.367 9.69837 12.4267 9.77201 12.4267Z" fill="#000080"/>
  <path d="M9.92337 12.9933C9.99701 12.9933 10.0567 12.9336 10.0567 12.86C10.0567 12.7864 9.99701 12.7267 9.92337 12.7267C9.84973 12.7267 9.79004 12.7864 9.79004 12.86C9.79004 12.9336 9.84973 12.9933 9.92337 12.9933Z" fill="#000080"/>
  <path d="M10.2163 13.5013C10.29 13.5013 10.3497 13.4417 10.3497 13.368C10.3497 13.2944 10.29 13.2347 10.2163 13.2347C10.1427 13.2347 10.083 13.2944 10.083 13.368C10.083 13.4417 10.1427 13.5013 10.2163 13.5013Z" fill="#000080"/>
  <path d="M10.6314 13.916C10.705 13.916 10.7647 13.8563 10.7647 13.7827C10.7647 13.709 10.705 13.6493 10.6314 13.6493C10.5577 13.6493 10.498 13.709 10.498 13.7827C10.498 13.8563 10.5577 13.916 10.6314 13.916Z" fill="#000080"/>
  <path d="M11.1392 14.2087C11.2128 14.2087 11.2725 14.149 11.2725 14.0753C11.2725 14.0017 11.2128 13.942 11.1392 13.942C11.0656 13.942 11.0059 14.0017 11.0059 14.0753C11.0059 14.149 11.0656 14.2087 11.1392 14.2087Z" fill="#000080"/>
  <path d="M11.7066 14.3607C11.7802 14.3607 11.8399 14.301 11.8399 14.2273C11.8399 14.1537 11.7802 14.094 11.7066 14.094C11.6329 14.094 11.5732 14.1537 11.5732 14.2273C11.5732 14.301 11.6329 14.3607 11.7066 14.3607Z" fill="#000080"/>
  <path d="M12.2925 14.3607C12.3662 14.3607 12.4258 14.301 12.4258 14.2273C12.4258 14.1537 12.3662 14.094 12.2925 14.094C12.2189 14.094 12.1592 14.1537 12.1592 14.2273C12.1592 14.301 12.2189 14.3607 12.2925 14.3607Z" fill="#000080"/>
  <path d="M12.8589 14.2087C12.9326 14.2087 12.9923 14.149 12.9923 14.0753C12.9923 14.0017 12.9326 13.942 12.8589 13.942C12.7853 13.942 12.7256 14.0017 12.7256 14.0753C12.7256 14.149 12.7853 14.2087 12.8589 14.2087Z" fill="#000080"/>
  <path d="M13.3667 13.916C13.4404 13.916 13.5001 13.8563 13.5001 13.7827C13.5001 13.709 13.4404 13.6493 13.3667 13.6493C13.2931 13.6493 13.2334 13.709 13.2334 13.7827C13.2334 13.8563 13.2931 13.916 13.3667 13.916Z" fill="#000080"/>
  <path d="M13.7818 13.5013C13.8554 13.5013 13.9151 13.4417 13.9151 13.368C13.9151 13.2944 13.8554 13.2347 13.7818 13.2347C13.7081 13.2347 13.6484 13.2944 13.6484 13.368C13.6484 13.4417 13.7081 13.5013 13.7818 13.5013Z" fill="#000080"/>
  <path d="M14.0747 12.9933C14.1484 12.9933 14.2081 12.9336 14.2081 12.86C14.2081 12.7864 14.1484 12.7267 14.0747 12.7267C14.0011 12.7267 13.9414 12.7864 13.9414 12.86C13.9414 12.9336 14.0011 12.9933 14.0747 12.9933Z" fill="#000080"/>
  <path d="M14.2261 12.4267C14.2997 12.4267 14.3594 12.367 14.3594 12.2934C14.3594 12.2197 14.2997 12.16 14.2261 12.16C14.1525 12.16 14.0928 12.2197 14.0928 12.2934C14.0928 12.367 14.1525 12.4267 14.2261 12.4267Z" fill="#000080"/>
  <path d="M14.2261 11.84C14.2997 11.84 14.3594 11.7803 14.3594 11.7067C14.3594 11.633 14.2997 11.5733 14.2261 11.5733C14.1525 11.5733 14.0928 11.633 14.0928 11.7067C14.0928 11.7803 14.1525 11.84 14.2261 11.84Z" fill="#000080"/>
  <path d="M14.0747 11.2733C14.1484 11.2733 14.2081 11.2136 14.2081 11.14C14.2081 11.0664 14.1484 11.0067 14.0747 11.0067C14.0011 11.0067 13.9414 11.0664 13.9414 11.14C13.9414 11.2136 14.0011 11.2733 14.0747 11.2733Z" fill="#000080"/>
  <path d="M13.7818 10.7653C13.8554 10.7653 13.9151 10.7056 13.9151 10.632C13.9151 10.5584 13.8554 10.4987 13.7818 10.4987C13.7081 10.4987 13.6484 10.5584 13.6484 10.632C13.6484 10.7056 13.7081 10.7653 13.7818 10.7653Z" fill="#000080"/>
  <path d="M13.3667 10.3507C13.4404 10.3507 13.5001 10.291 13.5001 10.2173C13.5001 10.1437 13.4404 10.084 13.3667 10.084C13.2931 10.084 13.2334 10.1437 13.2334 10.2173C13.2334 10.291 13.2931 10.3507 13.3667 10.3507Z" fill="#000080"/>
  <path d="M12.8589 10.058C12.9326 10.058 12.9923 9.99831 12.9923 9.92467C12.9923 9.85103 12.9326 9.79134 12.8589 9.79134C12.7853 9.79134 12.7256 9.85103 12.7256 9.92467C12.7256 9.99831 12.7853 10.058 12.8589 10.058Z" fill="#000080"/>
  <path d="M12.2925 9.90601C12.3662 9.90601 12.4258 9.84632 12.4258 9.77268C12.4258 9.69904 12.3662 9.63934 12.2925 9.63934C12.2189 9.63934 12.1592 9.69904 12.1592 9.77268C12.1592 9.84632 12.2189 9.90601 12.2925 9.90601Z" fill="#000080"/>
  <path d="M11.9994 12.6C12.3308 12.6 12.5994 12.3314 12.5994 12C12.5994 11.6686 12.3308 11.4 11.9994 11.4C11.668 11.4 11.3994 11.6686 11.3994 12C11.3994 12.3314 11.668 12.6 11.9994 12.6Z" fill="#000080"/>
</svg>