<svg width="22" height="22" viewBox="0 0 22 22" fill="none" xmlns="http://www.w3.org/2000/svg">
<path d="M10.5625 0C8.47344 0 6.43129 0.61948 4.69429 1.7801C2.9573 2.94072 1.60348 4.59036 0.804027 6.52041C0.00457657 8.45045 -0.204596 10.5742 0.20296 12.6231C0.610517 14.6721 1.6165 16.5541 3.09369 18.0313C4.57088 19.5085 6.45294 20.5145 8.50186 20.922C10.5508 21.3296 12.6746 21.1204 14.6046 20.321C16.5346 19.5215 18.1843 18.1677 19.3449 16.4307C20.5055 14.6937 21.125 12.6516 21.125 10.5625C21.1218 7.76214 20.0079 5.0774 18.0278 3.09725C16.0476 1.11709 13.3629 0.0032256 10.5625 0ZM19.5 10.5625C19.5007 11.3867 19.3869 12.2071 19.1618 13H15.2506C15.4999 11.3846 15.4999 9.74044 15.2506 8.125H19.1618C19.3869 8.91791 19.5007 9.73826 19.5 10.5625ZM7.92188 14.625H13.2031C12.6829 16.3298 11.7796 17.8931 10.5625 19.1953C9.34595 17.8927 8.4428 16.3295 7.92188 14.625ZM7.52579 13C7.24676 11.387 7.24676 9.73802 7.52579 8.125H13.6073C13.8864 9.73802 13.8864 11.387 13.6073 13H7.52579ZM1.625 10.5625C1.62428 9.73826 1.73811 8.91791 1.96321 8.125H5.87438C5.62515 9.74044 5.62515 11.3846 5.87438 13H1.96321C1.73811 12.2071 1.62428 11.3867 1.625 10.5625ZM13.2031 6.5H7.92188C8.44214 4.79517 9.34537 3.23188 10.5625 1.92969C11.7791 3.23231 12.6822 4.79545 13.2031 6.5ZM18.5179 6.5H14.9002C14.4442 4.82719 13.6758 3.25579 12.6354 1.86875C13.8924 2.17072 15.0693 2.74095 16.0854 3.54032C17.1014 4.3397 17.9326 5.34933 18.522 6.5H18.5179ZM8.48961 1.86875C7.44925 3.25579 6.68078 4.82719 6.22477 6.5H2.60305C3.19239 5.34933 4.02357 4.3397 5.03962 3.54032C6.05568 2.74095 7.23256 2.17072 8.48961 1.86875ZM2.60305 14.625H6.22477C6.68078 16.2978 7.44925 17.8692 8.48961 19.2563C7.23256 18.9543 6.05568 18.3841 5.03962 17.5847C4.02357 16.7853 3.19239 15.7757 2.60305 14.625ZM12.6354 19.2563C13.6758 17.8692 14.4442 16.2978 14.9002 14.625H18.522C17.9326 15.7757 17.1014 16.7853 16.0854 17.5847C15.0693 18.3841 13.8924 18.9543 12.6354 19.2563Z" fill="#2D2C2C"/>
</svg>
