<svg width="117" height="117" viewBox="0 0 117 117" fill="none" xmlns="http://www.w3.org/2000/svg">
    <path opacity="0.5" d="M58.5 9.75C48.8582 9.75 39.4329 12.6091 31.416 17.9659C23.3991 23.3226 17.1507 30.9363 13.4609 39.8442C9.77112 48.7521 8.80571 58.5541 10.6867 68.0107C12.5678 77.4672 17.2108 86.1536 24.0286 92.9715C30.8464 99.7893 39.5328 104.432 48.9894 106.313C58.4459 108.194 68.2479 107.229 77.1558 103.539C86.0637 99.8494 93.6774 93.6009 99.0342 85.584C104.391 77.5672 107.25 68.1418 107.25 58.5C107.25 52.0981 105.989 45.7588 103.539 39.8442C101.089 33.9296 97.4983 28.5554 92.9715 24.0285C88.4446 19.5017 83.0705 15.9108 77.1558 13.4609C71.2412 11.011 64.902 9.75 58.5 9.75ZM58.5 97.5C50.7866 97.5 43.2463 95.2127 36.8328 90.9273C30.4193 86.6419 25.4205 80.551 22.4687 73.4247C19.5169 66.2983 18.7446 58.4567 20.2494 50.8915C21.7542 43.3262 25.4686 36.3771 30.9229 30.9228C36.3771 25.4686 43.3262 21.7542 50.8915 20.2494C58.4568 18.7446 66.2984 19.5169 73.4247 22.4687C80.551 25.4205 86.642 30.4192 90.9273 36.8328C95.2127 43.2463 97.5 50.7865 97.5 58.5C97.5 68.8434 93.3911 78.7632 86.0772 86.0772C78.7633 93.3911 68.8435 97.5 58.5 97.5Z" fill="#4ECB71"/>
    <path d="M97.5 58.5H107.25C107.25 52.0981 105.989 45.7588 103.539 39.8442C101.089 33.9296 97.4983 28.5554 92.9715 24.0285C88.4446 19.5017 83.0704 15.9108 77.1558 13.4609C71.2412 11.011 64.9019 9.75 58.5 9.75V19.5C68.8434 19.5 78.7632 23.6089 86.0772 30.9228C93.3911 38.2368 97.5 48.1566 97.5 58.5Z" fill="#4ECB71"/>
</svg>
