<svg width="116" height="116" viewBox="0 0 116 116" fill="none" xmlns="http://www.w3.org/2000/svg">
                                    <path d="M80.1851 43.5H72.5001V19.3333C72.5001 16.675 70.3251 14.5 67.6667 14.5H48.3334C45.6751 14.5 43.5001 16.675 43.5001 19.3333V43.5H35.8151C31.5134 43.5 29.3384 48.72 32.3834 51.765L54.5684 73.95C56.4534 75.835 59.4984 75.835 61.3834 73.95L83.5684 51.765C86.6134 48.72 84.4867 43.5 80.1851 43.5ZM24.1667 91.8333C24.1667 94.4917 26.3417 96.6667 29.0001 96.6667H87.0001C89.6584 96.6667 91.8334 94.4917 91.8334 91.8333C91.8334 89.175 89.6584 87 87.0001 87H29.0001C26.3417 87 24.1667 89.175 24.1667 91.8333Z" fill="#3A6B5E"/>
                                </svg>