<svg width="7" height="13" viewBox="0 0 7 13" fill="none" xmlns="http://www.w3.org/2000/svg">
                                    <path d="M0.547712 0.9365L4.99075 5.78108C5.08822 5.8868 5.14004 6.0267 5.13498 6.1704C5.12991 6.3141 5.06836 6.45001 4.96369 6.5486L0.19146 11.0682C0.086823 11.1675 0.0253435 11.3038 0.0202618 11.4479C0.0151801 11.5921 0.0669028 11.7324 0.164291 11.8388C0.211853 11.8911 0.269414 11.9334 0.333581 11.9632C0.397749 11.993 0.467226 12.0096 0.537917 12.0121C0.608607 12.0146 0.679081 12.0029 0.745186 11.9777C0.811291 11.9525 0.871688 11.9144 0.92282 11.8655L5.69502 7.34687C6.00863 7.04921 6.19287 6.64035 6.2081 6.20824C6.22334 5.77613 6.06835 5.35531 5.77649 5.0363L1.33441 0.19276C1.28684 0.14025 1.22922 0.0978105 1.16496 0.0679529C1.10071 0.0380953 1.03111 0.0214252 0.960303 0.0189283C0.889492 0.0164315 0.818899 0.0281585 0.752699 0.0534161C0.686498 0.0786737 0.626034 0.116949 0.574881 0.165979C0.470244 0.265209 0.408765 0.401565 0.403683 0.545682C0.398601 0.689799 0.450324 0.830147 0.547712 0.9365Z" fill="#A0A0A0" />
                                </svg>