<svg width="33" height="33" viewBox="0 0 33 31" fill="none" xmlns="http://www.w3.org/2000/svg">
    <path d="M16.5 0C7.4085 0 0 6.9595 0 15.5C0 24.0405 7.4085 31 16.5 31C25.5915 31 33 24.0405 33 15.5C33 6.9595 25.5915 0 16.5 0ZM14.85 12.4V7.75C14.85 6.8975 15.5925 6.2 16.5 6.2C17.4075 6.2 18.15 6.8975 18.15 7.75V12.4H21.1035C21.846 12.4 22.209 13.237 21.681 13.7175L17.0775 18.042C16.7475 18.352 16.236 18.352 15.906 18.042L11.3025 13.7175C11.1885 13.6082 11.1114 13.4697 11.0811 13.3194C11.0508 13.169 11.0685 13.0136 11.132 12.8727C11.1955 12.7318 11.302 12.6118 11.4381 12.5276C11.5741 12.4435 11.7336 12.3991 11.8965 12.4H14.85ZM23.1 23.25H9.9C8.9925 23.25 8.25 22.5525 8.25 21.7C8.25 20.8475 8.9925 20.15 9.9 20.15H23.1C24.0075 20.15 24.75 20.8475 24.75 21.7C24.75 22.5525 24.0075 23.25 23.1 23.25Z" fill="white"/>
</svg>  