<svg width="177" height="139" viewBox="0 0 177 139" fill="none" xmlns="http://www.w3.org/2000/svg">
<path d="M165.034 81.9566C158.833 102.006 87.4009 119.702 67.3512 113.501C47.3016 107.299 10.05 60.1742 16.2514 40.1245C22.4529 20.0748 119.91 28.2234 139.96 34.4248C160.009 40.6262 171.236 61.907 165.034 81.9566Z" fill="#E8E4FF"/>
<path d="M78 64H116M78 64V86C78 86.5304 78.2107 87.0391 78.5858 87.4142C78.9609 87.7893 79.4696 88 80 88H114C114.53 88 115.039 87.7893 115.414 87.4142C115.789 87.0391 116 86.5304 116 86V64M78 64V55C78 54.4696 78.2107 53.9609 78.5858 53.5858C78.9609 53.2107 79.4696 53 80 53H114C114.53 53 115.039 53.2107 115.414 53.5858C115.789 53.9609 116 54.4696 116 55V64" stroke="#1C09A1" stroke-width="4" stroke-linejoin="round"/>
<path d="M89 76L95 82L107 70" stroke="#1C09A1" stroke-width="4" stroke-linecap="round" stroke-linejoin="round"/>
<path d="M89 50V58M105 50V58" stroke="#1C09A1" stroke-width="4" stroke-linecap="round"/>
</svg>
