<svg width="177" height="139" viewBox="0 0 177 139" fill="none" xmlns="http://www.w3.org/2000/svg">
<path d="M165.034 81.9566C158.833 102.006 87.4009 119.702 67.3512 113.501C47.3016 107.299 10.05 60.1742 16.2514 40.1245C22.4529 20.0748 119.91 28.2234 139.96 34.4248C160.009 40.6262 171.236 61.907 165.034 81.9566Z" fill="#E8E4FF"/>
<g clip-path="url(#clip0_1511_404)">
<path d="M95.8266 47C102.831 47 108.51 52.6452 108.51 59.6104C108.511 61.4356 108.114 63.2392 107.347 64.8952C106.579 66.5512 105.459 68.0196 104.066 69.198C104.66 69.4913 105.201 69.7869 105.689 70.0846C106.739 70.7226 107.832 71.5139 108.967 72.4584C109.12 72.5855 109.247 72.7416 109.339 72.9178C109.432 73.0939 109.488 73.2867 109.506 73.4849C109.524 73.6831 109.502 73.8828 109.442 74.0725C109.382 74.2622 109.285 74.4382 109.156 74.5902C108.896 74.8988 108.525 75.0919 108.123 75.1273C107.721 75.1628 107.321 75.0377 107.011 74.7794C106.096 74.0043 105.123 73.2983 104.103 72.6674C103.111 72.0789 102.078 71.562 101.012 71.1208C99.3796 71.8464 97.613 72.2212 95.8266 72.2208C93.8572 72.2211 91.9145 71.7655 90.1506 70.8898L90.0582 70.9338C85.7682 72.597 82.6376 75.0566 80.6158 78.3214C78.5874 81.5972 77.758 85.258 78.1298 89.3522C78.1639 89.753 78.0376 90.1509 77.7786 90.4587C77.5195 90.7664 77.1489 90.9587 76.7482 90.9934C76.3477 91.0301 75.949 90.9064 75.6397 90.6494C75.3303 90.3925 75.1356 90.0232 75.0982 89.6228C74.6692 84.8884 75.646 80.5742 78.0242 76.7352C80.1142 73.356 83.1876 70.7292 87.207 68.8548C85.9263 67.6795 84.904 66.2508 84.2049 64.6594C83.5057 63.068 83.1451 61.3486 83.1458 59.6104C83.1458 52.6452 88.8218 47 95.8266 47ZM112.109 74.9246C112.945 74.9246 113.622 75.6066 113.622 76.4448V80.2992H117.477C117.676 80.2986 117.874 80.3374 118.059 80.4133C118.243 80.4892 118.411 80.6007 118.552 80.7415C118.694 80.8823 118.806 81.0495 118.883 81.2337C118.959 81.4179 118.999 81.6155 118.999 81.815C118.997 82.2172 118.836 82.6023 118.551 82.8857C118.265 83.1691 117.879 83.3276 117.477 83.3264H113.622V87.183C113.623 87.5852 113.464 87.9712 113.18 88.2563C112.896 88.5413 112.511 88.702 112.109 88.7032C111.707 88.702 111.321 88.5413 111.037 88.2563C110.754 87.9712 110.595 87.5852 110.595 87.183V83.3264H106.741C106.339 83.3276 105.952 83.1691 105.667 82.8857C105.381 82.6023 105.22 82.2172 105.218 81.815C105.218 80.979 105.9 80.3014 106.741 80.3014L110.595 80.2992V76.4448C110.595 76.0426 110.754 75.6566 111.037 75.3715C111.321 75.0865 111.707 74.9258 112.109 74.9246ZM95.8288 50.0272C90.5048 50.0272 86.1884 54.3172 86.1884 59.6104C86.1884 64.9036 90.5048 69.1958 95.8266 69.1958C101.148 69.1958 105.465 64.9058 105.465 59.6104C105.465 54.315 101.151 50.0272 95.8288 50.0272Z" fill="#1C09A1"/>
</g>
<defs>
<clipPath id="clip0_1511_404">
<rect width="44" height="44" fill="white" transform="translate(75 47)"/>
</clipPath>
</defs>
</svg>
