<svg width="177" height="139" viewBox="0 0 177 139" fill="none" xmlns="http://www.w3.org/2000/svg">
<path d="M165.034 81.9566C158.833 102.006 87.4009 119.702 67.3512 113.501C47.3016 107.299 10.05 60.1742 16.2514 40.1245C22.4529 20.0748 119.91 28.2234 139.96 34.4248C160.009 40.6262 171.236 61.907 165.034 81.9566Z" fill="#E8E4FF"/>
<path d="M101.873 46.625H73.123C69.9474 46.625 67.373 49.1994 67.373 52.375V92.625C67.373 95.8006 69.9474 98.375 73.123 98.375H101.873C105.049 98.375 107.623 95.8006 107.623 92.625V52.375C107.623 49.1994 105.049 46.625 101.873 46.625Z" fill="#1205A3"/>
<path d="M80.3105 59.5625H94.6855H80.3105ZM80.3105 68.1875H88.9355H80.3105ZM80.3105 76.8125H91.8105H80.3105ZM80.3105 85.4375H88.9355H80.3105Z" fill="white"/>
<path d="M80.3105 59.5625H94.6855M80.3105 68.1875H88.9355M80.3105 76.8125H91.8105M80.3105 85.4375H88.9355" stroke="#F0EFF2" stroke-width="2.875" stroke-linecap="round"/>
<mask id="path-5-inside-1_1464_425" fill="white">
<path d="M76 59.5625C76 58.7686 75.3564 58.125 74.5625 58.125C73.7686 58.125 73.125 58.7686 73.125 59.5625C73.125 60.3564 73.7686 61 74.5625 61C75.3564 61 76 60.3564 76 59.5625Z"/>
</mask>
<path d="M76 59.5625C76 58.7686 75.3564 58.125 74.5625 58.125C73.7686 58.125 73.125 58.7686 73.125 59.5625C73.125 60.3564 73.7686 61 74.5625 61C75.3564 61 76 60.3564 76 59.5625Z" fill="white"/>
<path d="M74.5625 61C73.7686 61 73.125 60.3564 73.125 59.5625H78.875C78.875 57.1808 76.9442 55.25 74.5625 55.25V61ZM73.125 59.5625C73.125 58.7686 73.7686 58.125 74.5625 58.125V63.875C76.9442 63.875 78.875 61.9442 78.875 59.5625H73.125ZM74.5625 58.125C75.3564 58.125 76 58.7686 76 59.5625H70.25C70.25 61.9442 72.1808 63.875 74.5625 63.875V58.125ZM76 59.5625C76 60.3564 75.3564 61 74.5625 61V55.25C72.1808 55.25 70.25 57.1808 70.25 59.5625H76Z" fill="#F0EFF2" mask="url(#path-5-inside-1_1464_425)"/>
<mask id="path-7-inside-2_1464_425" fill="white">
<path d="M76 68.1875C76 67.3936 75.3564 66.75 74.5625 66.75C73.7686 66.75 73.125 67.3936 73.125 68.1875C73.125 68.9814 73.7686 69.625 74.5625 69.625C75.3564 69.625 76 68.9814 76 68.1875Z"/>
</mask>
<path d="M76 68.1875C76 67.3936 75.3564 66.75 74.5625 66.75C73.7686 66.75 73.125 67.3936 73.125 68.1875C73.125 68.9814 73.7686 69.625 74.5625 69.625C75.3564 69.625 76 68.9814 76 68.1875Z" fill="white"/>
<path d="M74.5625 69.625C73.7686 69.625 73.125 68.9814 73.125 68.1875H78.875C78.875 65.8058 76.9442 63.875 74.5625 63.875V69.625ZM73.125 68.1875C73.125 67.3936 73.7686 66.75 74.5625 66.75V72.5C76.9442 72.5 78.875 70.5692 78.875 68.1875H73.125ZM74.5625 66.75C75.3564 66.75 76 67.3936 76 68.1875H70.25C70.25 70.5692 72.1808 72.5 74.5625 72.5V66.75ZM76 68.1875C76 68.9814 75.3564 69.625 74.5625 69.625V63.875C72.1808 63.875 70.25 65.8058 70.25 68.1875H76Z" fill="#F0EFF2" mask="url(#path-7-inside-2_1464_425)"/>
<mask id="path-9-inside-3_1464_425" fill="white">
<path d="M76 76.8125C76 76.0186 75.3564 75.375 74.5625 75.375C73.7686 75.375 73.125 76.0186 73.125 76.8125C73.125 77.6064 73.7686 78.25 74.5625 78.25C75.3564 78.25 76 77.6064 76 76.8125Z"/>
</mask>
<path d="M76 76.8125C76 76.0186 75.3564 75.375 74.5625 75.375C73.7686 75.375 73.125 76.0186 73.125 76.8125C73.125 77.6064 73.7686 78.25 74.5625 78.25C75.3564 78.25 76 77.6064 76 76.8125Z" fill="white"/>
<path d="M74.5625 78.25C73.7686 78.25 73.125 77.6064 73.125 76.8125H78.875C78.875 74.4308 76.9442 72.5 74.5625 72.5V78.25ZM73.125 76.8125C73.125 76.0186 73.7686 75.375 74.5625 75.375V81.125C76.9442 81.125 78.875 79.1942 78.875 76.8125H73.125ZM74.5625 75.375C75.3564 75.375 76 76.0186 76 76.8125H70.25C70.25 79.1942 72.1808 81.125 74.5625 81.125V75.375ZM76 76.8125C76 77.6064 75.3564 78.25 74.5625 78.25V72.5C72.1808 72.5 70.25 74.4308 70.25 76.8125H76Z" fill="#F0EFF2" mask="url(#path-9-inside-3_1464_425)"/>
<mask id="path-11-inside-4_1464_425" fill="white">
<path d="M76 85.4375C76 84.6436 75.3564 84 74.5625 84C73.7686 84 73.125 84.6436 73.125 85.4375C73.125 86.2314 73.7686 86.875 74.5625 86.875C75.3564 86.875 76 86.2314 76 85.4375Z"/>
</mask>
<path d="M76 85.4375C76 84.6436 75.3564 84 74.5625 84C73.7686 84 73.125 84.6436 73.125 85.4375C73.125 86.2314 73.7686 86.875 74.5625 86.875C75.3564 86.875 76 86.2314 76 85.4375Z" fill="white"/>
<path d="M74.5625 86.875C73.7686 86.875 73.125 86.2314 73.125 85.4375H78.875C78.875 83.0558 76.9442 81.125 74.5625 81.125V86.875ZM73.125 85.4375C73.125 84.6436 73.7686 84 74.5625 84V89.75C76.9442 89.75 78.875 87.8192 78.875 85.4375H73.125ZM74.5625 84C75.3564 84 76 84.6436 76 85.4375H70.25C70.25 87.8192 72.1808 89.75 74.5625 89.75V84ZM76 85.4375C76 86.2314 75.3564 86.875 74.5625 86.875V81.125C72.1808 81.125 70.25 83.0558 70.25 85.4375H76Z" fill="#F0EFF2" mask="url(#path-11-inside-4_1464_425)"/>
</svg>
